<svg width="48" height="49" viewBox="0 0 48 49" fill="none" xmlns="http://www.w3.org/2000/svg">
<path d="M22.6595 22.3317L19.964 24.8432H24.1012L24.2588 23.8446L22.1415 23.8371L23.6507 22.5511C23.8809 22.3544 24.0811 22.135 24.2513 21.893C24.4265 21.6459 24.5367 21.3761 24.5817 21.0836C24.6218 20.8062 24.5792 20.5439 24.4541 20.2968C24.3289 20.0447 24.1362 19.8404 23.8759 19.6841C23.6206 19.5278 23.3128 19.4496 22.9524 19.4496C22.5419 19.4496 22.1815 19.5429 21.8711 19.7295C21.5658 19.911 21.318 20.1556 21.1278 20.4633C20.9426 20.7658 20.82 21.0987 20.7599 21.4618H21.8111C21.8461 21.2752 21.9062 21.1012 21.9913 20.9398C22.0814 20.7785 22.1965 20.6473 22.3367 20.5465C22.4818 20.4456 22.6495 20.3977 22.8397 20.4027C23.07 20.4078 23.2402 20.486 23.3503 20.6372C23.4604 20.7885 23.503 20.96 23.478 21.1516C23.4429 21.3836 23.3453 21.5929 23.1851 21.7795C23.025 21.9611 22.8498 22.1451 22.6595 22.3317Z" fill="#2C2C22"/>
<path d="M16.6486 19.5479L16.4835 20.5616H18.9237L16.2207 24.8432H17.392L20.6582 19.5479H16.6486Z" fill="#2C2C22"/>
<path d="M24.9546 21.9711H25.4817L25.3121 22.944H26.4695L26.6354 21.9711H27.1625L26.7165 24.5706H26.1968L26.3884 23.4268H25.231L25.0357 24.5706H24.516L24.9546 21.9711Z" fill="#2C2C22"/>
<path fill-rule="evenodd" clip-rule="evenodd" d="M27.6867 21.9711H28.5197C28.7016 21.9711 28.8576 22.0057 28.9878 22.0751C29.1181 22.1444 29.2139 22.2422 29.2753 22.3684C29.3392 22.4922 29.3601 22.6371 29.338 22.8029C29.311 22.9911 29.2372 23.152 29.1168 23.2857C28.9989 23.4169 28.8502 23.511 28.6708 23.5679L29.1758 24.5706H28.5787L28.1511 23.6273H27.93L27.7678 24.5706H27.248L27.6867 21.9711ZM28.4386 22.4316H28.1327L28 23.204H28.2801C28.4079 23.204 28.5197 23.1706 28.6155 23.1037C28.7138 23.0344 28.774 22.9378 28.7962 22.8141C28.8158 22.6977 28.7912 22.6049 28.7224 22.5355C28.6561 22.4662 28.5615 22.4316 28.4386 22.4316Z" fill="#2C2C22"/>
<path fill-rule="evenodd" clip-rule="evenodd" d="M38.3253 17.7315H42.8007L45.4938 21.5474L44.9479 23.6893H36.9185L38.3253 17.7315ZM39.0427 18.6463L38.0678 22.7745H44.2436L44.5095 21.7313L42.3322 18.6463H39.0427Z" fill="#2C2C22"/>
<path fill-rule="evenodd" clip-rule="evenodd" d="M10.827 11.4277L9.89469 15.21H6.20956C5.95882 15.21 5.75555 15.4148 5.75555 15.6674C5.75555 15.92 5.95882 16.1248 6.20956 16.1248H9.66919L8.34082 21.5137H2.45428C2.20354 21.5137 2.00028 21.7185 2.00028 21.9711C2.00028 22.2237 2.20354 22.4285 2.45428 22.4285H8.11532L6.78694 27.8174H1.204C0.953264 27.8174 0.75 28.0222 0.75 28.2748C0.75 28.5274 0.953264 28.7322 1.204 28.7322H6.56144L5.62901 32.5149H12.0324C12.2612 34.9901 14.3287 36.9277 16.8453 36.9277C19.362 36.9277 21.4295 34.9901 21.6583 32.5149H30.8043C31.0331 34.9901 33.1006 36.9277 35.6173 36.9277C38.1339 36.9277 40.2014 34.9901 40.4302 32.5148H44.8483L47.9999 20.8285L43.931 15.21H37.1431L38.0754 11.4277H10.827ZM9.0509 22.4285L7.72253 27.8174H15.5953C15.846 27.8174 16.0493 28.0222 16.0493 28.2748C16.0493 28.5274 15.846 28.7322 15.5953 28.7322H7.49703L6.7901 31.6001L13.2151 31.6001C16.4292 31.5996 18.7085 31.5993 20.9511 31.6001L32.1318 31.6L36.1374 15.21H36.2075L36.9144 12.3425H11.5371L10.8303 15.21H14.9695C15.2202 15.21 15.4235 15.4148 15.4235 15.6674C15.4235 15.92 15.2202 16.1248 14.9695 16.1248H10.6048L9.2764 21.5137H11.2142C11.4649 21.5137 11.6682 21.7185 11.6682 21.9711C11.6682 22.2237 11.4649 22.4285 11.2142 22.4285H9.0509ZM33.103 31.5999C35.6397 31.5996 37.5861 31.5994 39.4836 31.6H44.1541L47.0093 21.0127L43.4695 16.1248H36.9176L33.103 31.5999ZM31.7173 32.5149L39.5173 32.5148C39.2923 34.4839 37.632 36.0129 35.6173 36.0129C33.6026 36.0129 31.9423 34.4839 31.7173 32.5149ZM20.7453 32.5149C20.5203 34.4839 18.8601 36.0129 16.8453 36.0129C14.8306 36.0129 13.1704 34.4839 12.9453 32.5149L20.7453 32.5149Z" fill="#2C2C22"/>
</svg>
