<svg width="48" height="49" viewBox="0 0 48 49" fill="none" xmlns="http://www.w3.org/2000/svg">
<path d="M24.514 17.6537C25.5272 22.3929 26.4947 25.3555 28.4982 30.1273C28.5448 30.2384 28.7032 30.2377 28.7472 30.1256L29.7144 27.6591C29.7985 27.4448 30.0683 27.3767 30.2439 27.5254L32.3353 29.2962C32.4429 29.3873 32.5988 29.2718 32.5434 29.1421C31.1054 25.7775 29.8579 23.6373 28.6268 20.0038M23.4437 17.6537C22.4305 22.3929 21.463 25.3555 19.4595 30.1273C19.4129 30.2384 19.2545 30.2377 19.2105 30.1256L18.2433 27.6591C18.1592 27.4448 17.8894 27.3767 17.7138 27.5254L15.6224 29.2962C15.5148 29.3873 15.3589 29.2718 15.4143 29.1421C16.8523 25.7775 18.0998 23.6373 19.3309 20.0038M25.0389 14.4012C26.3681 11.4905 28.5364 10.3821 31.4638 9.17326C31.6086 9.11347 31.7756 9.16224 31.8657 9.29036L34.7633 13.41C34.7851 13.4411 34.8019 13.4759 34.8111 13.5127C35.0553 14.4908 34.3649 15.1321 32.3621 16.3317M25.5427 14.6113C26.7421 14.2656 31.8957 15.9452 34.9488 17.6564C35.1094 17.7465 35.1632 17.9505 35.0713 18.11C34.3383 19.381 33.8422 20.1973 33.0091 21.4831C32.9253 21.6125 32.7627 21.668 32.6172 21.6171C29.295 20.4554 27.65 19.6012 24.9131 17.4021M22.9613 14.4012C21.632 11.4905 19.4637 10.3821 16.5364 9.17326C16.3916 9.11347 16.2246 9.16224 16.1344 9.29036L13.2369 13.41C13.215 13.4411 13.1982 13.4759 13.1891 13.5127C12.9448 14.4908 13.6352 15.1321 15.638 16.3317M22.4575 14.6113C21.2581 14.2656 16.1045 15.9452 13.0513 17.6564C12.8907 17.7465 12.8369 17.9505 12.9288 18.11C13.6618 19.381 14.1579 20.1973 14.991 21.4831C15.0749 21.6125 15.2374 21.668 15.383 21.6171C18.7052 20.4554 20.3501 19.6012 23.087 17.4021M18.2269 9.46739V3.33201C18.2269 3.10981 18.4071 2.92969 18.6293 2.92969H29.341C29.5632 2.92969 29.7433 3.10981 29.7433 3.33201V9.46739M20.314 11.0264H27.6563M18.1766 28.0747V45.0224C18.1766 45.2446 18.3568 45.4247 18.579 45.4247H29.3468C29.5667 45.4247 29.7459 45.2481 29.7491 45.0282L29.9948 28.0747M21.4958 24.7304V41.6027C21.4958 41.8249 21.6759 42.005 21.8981 42.005H26.0219C26.2441 42.005 26.4242 41.8249 26.4242 41.6027V25.0321M22.4932 14.8748L22.8075 14.5698C22.9328 14.4482 23.1005 14.3802 23.2751 14.3802H24.9337C25.0959 14.3802 25.2525 14.4388 25.3747 14.5453L25.6052 14.746C25.7516 14.8735 25.8356 15.0582 25.8356 15.2524V15.7162C25.8356 15.8571 25.7913 15.9945 25.7089 16.1088L24.7357 17.4588C24.6094 17.6338 24.4068 17.7376 24.191 17.7376H23.9164C23.6987 17.7376 23.4946 17.6321 23.3687 17.4546L22.4132 16.1075C22.3327 15.994 22.2894 15.8582 22.2894 15.719V15.3567C22.2894 15.1751 22.3629 15.0013 22.4932 14.8748Z" stroke="#2C2C22" stroke-width="1.2" stroke-linecap="round"/>
</svg>
